<svg id="Layer_1" data-name="Layer 1" xmlns="http://www.w3.org/2000/svg" viewBox="0 0 1003.24 854.18"><defs><style>.cls-1,.cls-10{fill:#d6bdab;}.cls-1,.cls-10,.cls-11,.cls-12,.cls-13,.cls-2,.cls-3,.cls-4,.cls-5,.cls-6,.cls-7,.cls-8,.cls-9{stroke:gray;stroke-miterlimit:10;}.cls-2{fill:#95897d;}.cls-3{fill:#fafafa;}.cls-4,.cls-7{fill:#fff;}.cls-5{fill:#96887c;}.cls-6{fill:#3a7d78;}.cls-10,.cls-11,.cls-13,.cls-7{stroke-width:2px;}.cls-8{fill:#c4ab97;}.cls-9{fill:#ddd7ca;}.cls-11{fill:#f2f2f2;}.cls-12,.cls-13{fill:none;}.cls-12{stroke-width:3px;}</style></defs><title>minimalism</title><rect class="cls-1" x="267.34" y="0.5" width="478.8" height="22.4"/><rect class="cls-2" x="267.34" y="0.5" width="451.5" height="22.4"/><rect class="cls-1" x="304.44" y="22.9" width="384.3" height="336"/><rect class="cls-3" x="517.24" y="22.9" width="163.07" height="153.3"/><rect class="cls-3" x="335.24" y="22.9" width="171.5" height="153.3"/><polygon class="cls-4" points="507.15 175.95 335.65 175.95 335.65 22.65 507.15 175.95"/><rect class="cls-3" x="517.24" y="190.9" width="163.07" height="161.07"/><rect class="cls-3" x="335.24" y="190.9" width="171.5" height="161.07"/><rect class="cls-5" x="304.44" y="22.9" width="12.13" height="460.37"/><rect class="cls-4" x="316.57" y="22.9" width="18.67" height="460.37"/><rect class="cls-5" x="335.24" y="22.9" width="22.4" height="460.37"/><rect class="cls-4" x="357.64" y="22.9" width="23.33" height="460.37"/><rect class="cls-5" x="380.97" y="22.9" width="22.4" height="460.37"/><rect class="cls-4" x="403.37" y="22.9" width="17.62" height="460.37"/><rect class="cls-5" x="420.99" y="22.9" width="23.22" height="460.37"/><rect class="cls-4" x="444.21" y="22.9" width="26.37" height="460.37"/><rect class="cls-5" x="470.57" y="22.9" width="14.93" height="460.37"/><rect class="cls-1" x="751.04" y="45.41" width="204.4" height="298.2"/><rect class="cls-4" x="759.44" y="55.56" width="187.6" height="277.9"/><rect class="cls-1" x="72.24" y="44.73" width="73.73" height="99.22"/><rect class="cls-3" x="77.37" y="50.59" width="63.47" height="87.5"/><polygon class="cls-4" points="680.31 176.2 517.24 176.2 517.24 22.9 533.47 22.9 680.31 176.2"/><polygon class="cls-4" points="680.31 351.97 517.24 351.97 517.24 190.9 680.31 351.97"/><rect class="cls-1" x="304.44" y="22.1" width="384.3" height="11.07"/><path class="cls-6" d="M719.12,715.79c-7.42,6.27-30.36-6.13-36.5-13.35-13.51-15.88-7.45-37.88-7.45-37.88s23.72-2.37,36.79,13.1C718.21,685.07,726.53,709.53,719.12,715.79Z" transform="translate(-457.52 -183.84)"/><path class="cls-6" d="M724.43,715.79c7.42,6.27,30.36-6.13,36.5-13.35,13.51-15.88,7.45-37.88,7.45-37.88s-23.72-2.37-36.79,13.1C725.34,685.07,717,709.53,724.43,715.79Z" transform="translate(-457.52 -183.84)"/><path class="cls-6" d="M722,711.44c-9.71,0-19.24-24.27-19.28-33.75-.08-20.85,18.75-33.75,18.75-33.75s19.65,13.5,19.65,33.75C741.16,687.39,731.74,711.44,722,711.44Z" transform="translate(-457.52 -183.84)"/><rect class="cls-7" x="213.67" y="527.6" width="101.7" height="20.7"/><polygon class="cls-7" points="304.94 548.3 223.04 548.3 232.12 596 296.92 596 304.94 548.3"/><rect class="cls-1" x="75.4" y="577.84" width="109.59" height="19.03" rx="3.62" ry="3.62"/><rect class="cls-1" x="98.15" y="569.31" width="63.44" height="8.53" rx="1.62" ry="1.62"/><path class="cls-1" d="M615.13,566a14.92,14.92,0,0,1,6.51,10.12l39-6.29a40.08,40.08,0,0,1-.69-7.44c0-1.23.07-2.44.18-3.65Z" transform="translate(-457.52 -183.84)"/><path class="cls-1" d="M533.41,666.19a14.87,14.87,0,0,1,9.53,3.44l57.54-77.76a15,15,0,0,1-7.57-8.31L531.7,666.3A15,15,0,0,1,533.41,666.19Z" transform="translate(-457.52 -183.84)"/><path class="cls-1" d="M589.52,753.15l-45.42-61.6A14.87,14.87,0,0,1,533.71,696l42.11,57.11Z" transform="translate(-457.52 -183.84)"/><circle class="cls-7" cx="533.41" cy="681.12" r="14.93" transform="translate(-757.59 265.41) rotate(-36.39)"/><circle class="cls-7" cx="149.39" cy="394.59" r="14.93"/><path class="cls-7" d="M739.64,562.34a23.45,23.45,0,0,1-1.13,5.21l-65.91,24s-1.77-1.73-2.59-2.65a39.87,39.87,0,1,1,69.64-26.51Z" transform="translate(-457.52 -183.84)"/><rect class="cls-4" x="378.44" y="586.49" width="305.1" height="10.34"/><path class="cls-7" d="M1203.06,780c0-.47,0-.95,0-1.42a34.15,34.15,0,0,0-68.31,0c0,.48,0,1,0,1.42Z" transform="translate(-457.52 -183.84)"/><rect class="cls-8" x="861.63" y="491.76" width="38.4" height="105.6"/><rect class="cls-5" x="900.03" y="450.96" width="38.4" height="146.4"/><rect class="cls-9" x="939.23" y="463.76" width="19.2" height="133.6"/><rect class="cls-7" x="85.79" y="71.03" width="46.62" height="46.62" rx="23.31" ry="23.31"/><rect class="cls-7" x="1" y="596" width="1001.24" height="32.36" rx="5.33" ry="5.33"/><polygon class="cls-10" points="96.65 628.37 129.73 628.37 80.65 853.18 59.85 853.17 96.65 628.37"/><polygon class="cls-10" points="896.77 628.37 863.68 628.37 912.77 853.18 933.57 853.17 896.77 628.37"/><line class="cls-4" x1="421.4" y1="420.37" x2="568.45" y2="420.37"/><rect class="cls-11" x="349.07" y="371.47" width="305.1" height="208.8" rx="10.25" ry="10.25"/><path class="cls-7" d="M806.59,741.4V576.08h305.1V741.4Z" transform="translate(-457.52 -183.84)"/><line class="cls-7" x1="389.49" y1="420.37" x2="536.55" y2="420.37"/><line class="cls-7" x1="389.49" y1="443.35" x2="504.27" y2="443.35"/><line class="cls-7" x1="389.49" y1="431.57" x2="453.6" y2="431.57"/><path class="cls-1" d="M1026.37,933.41l24.2,70.4,9.12,33.2h-22.82s-42.56-126.56-26.32-126.4C1040.33,910.89,1026.37,933.41,1026.37,933.41Z" transform="translate(-457.52 -183.84)"/><path class="cls-1" d="M893.41,933.41l-25.11,70.4-9.46,33.2h23.68s44.16-126.55,27.3-126.39C878.93,910.89,893.41,933.41,893.41,933.41Z" transform="translate(-457.52 -183.84)"/><line class="cls-12" x1="447.19" y1="749.62" x2="569.88" y2="808.6"/><line class="cls-12" x1="557.14" y1="751.83" x2="433.36" y2="808.6"/><line class="cls-12" x1="440.02" y1="762.06" x2="582.36" y2="828.97"/><line class="cls-12" x1="563.54" y1="767.42" x2="420.81" y2="833.18"/><path class="cls-11" d="M854,807.58c-3,14.31-24.3,31.05-20.92,68.18,3.24,35.64,69.52,36.4,131,36.45,94.5.07,113.24-3.33,120.15-33.75,6.75-29.7-12.63-53.63-18.23-68.17-16.87-43.87,2.7-160.11-110.7-160.11C859.39,650.18,864.2,758.5,854,807.58Z" transform="translate(-457.52 -183.84)"/><path class="cls-7" d="M854,807.58c-3,14.31-24.3,31.05-20.92,68.18,3.24,35.64,69.52,36.4,131,36.45,21.1,0,70.24-25.53,64.8-81C1014.64,686.76,987.56,654,987.56,654s-20.06-3.83-32.32-3.83C859.39,650.18,864.2,758.5,854,807.58Z" transform="translate(-457.52 -183.84)"/><polyline class="cls-7" points="109.1 76.77 109.1 94.34 123.91 94.34"/><path class="cls-7" d="M1283,719.39h-46.42a23.56,23.56,0,0,0-.29,3.5v28.5a23.5,23.5,0,0,0,23.5,23.5h0a23.5,23.5,0,0,0,23.5-23.5v-28.5A23.56,23.56,0,0,0,1283,719.39Z" transform="translate(-457.52 -183.84)"/><rect class="cls-10" x="773.23" y="591.06" width="63" height="5.5" rx="1.83" ry="1.83"/><line class="cls-13" x1="819.42" y1="540.53" x2="819.42" y2="573.53"/><path class="cls-7" d="M1287.25,728.49a6,6,0,0,0-4,1.53v21.38a23.56,23.56,0,0,1-.38,4.1,6.08,6.08,0,0,0,10.47-4.22V734.58A6.09,6.09,0,0,0,1287.25,728.49Z" transform="translate(-457.52 -183.84)"/></svg>