<svg id="Layer_1" data-name="Layer 1" xmlns="http://www.w3.org/2000/svg" viewBox="0 0 1003.24 854.68"><defs><style>.cls-1{fill:#f2f2f2;}.cls-1,.cls-2,.cls-3,.cls-5,.cls-7,.cls-8{stroke:gray;}.cls-1,.cls-11,.cls-2,.cls-3,.cls-4,.cls-5,.cls-7,.cls-8{stroke-miterlimit:10;}.cls-1,.cls-5,.cls-8{stroke-width:2px;}.cls-3,.cls-5{fill:#fff;}.cls-4,.cls-9{fill:#4c532a;}.cls-4{stroke:#fff;}.cls-6{fill:#d3594d;}.cls-11,.cls-7,.cls-8{fill:none;}.cls-7{stroke-width:3px;}.cls-10{fill:#3f2b24;}.cls-11{stroke:#feeedf;}.cls-12{fill:#232612;}</style></defs><title>minimalism-web</title><rect class="cls-1" x="267.34" y="1" width="478.8" height="22.4"/><rect class="cls-2" x="267.34" y="1" width="451.5" height="22.4"/><rect class="cls-2" x="304.44" y="23.4" width="384.3" height="336"/><rect class="cls-3" x="517.24" y="23.4" width="163.07" height="153.3"/><rect class="cls-3" x="335.24" y="23.4" width="171.5" height="153.3"/><rect class="cls-3" x="517.24" y="191.4" width="163.07" height="161.07"/><rect class="cls-3" x="335.24" y="191.4" width="171.5" height="161.07"/><rect class="cls-1" x="304.44" y="23.4" width="12.13" height="460.37"/><rect class="cls-3" x="316.57" y="23.4" width="18.67" height="460.37"/><rect class="cls-1" x="335.24" y="23.4" width="22.4" height="460.37"/><rect class="cls-3" x="357.64" y="23.4" width="23.33" height="460.37"/><rect class="cls-2" x="751.04" y="45.91" width="204.4" height="298.2"/><rect class="cls-3" x="759.44" y="56.06" width="187.6" height="277.9"/><rect class="cls-2" x="72.24" y="45.23" width="73.73" height="99.23"/><rect class="cls-3" x="77.37" y="51.09" width="63.47" height="87.5"/><rect class="cls-2" x="304.44" y="22.6" width="384.3" height="11.07"/><path class="cls-4" d="M719.12,715.79c-7.42,6.27-30.36-6.13-36.5-13.35-13.51-15.88-7.45-37.88-7.45-37.88s23.72-2.37,36.79,13.1C718.21,685.07,726.53,709.53,719.12,715.79Z" transform="translate(-457.52 -183.34)"/><path class="cls-4" d="M724.43,715.79c7.42,6.27,30.36-6.13,36.5-13.35,13.51-15.88,7.45-37.88,7.45-37.88s-23.72-2.37-36.79,13.1C725.34,685.07,717,709.53,724.43,715.79Z" transform="translate(-457.52 -183.34)"/><path class="cls-4" d="M722,711.44c-9.71,0-19.24-24.27-19.28-33.75-.08-20.85,18.75-33.75,18.75-33.75s19.65,13.5,19.65,33.75C741.16,687.39,731.74,711.44,722,711.44Z" transform="translate(-457.52 -183.34)"/><rect class="cls-5" x="213.67" y="528.1" width="101.7" height="20.7"/><polygon class="cls-5" points="304.94 548.8 223.04 548.8 232.12 596.5 296.92 596.5 304.94 548.8"/><rect class="cls-2" x="75.4" y="578.34" width="109.59" height="19.03" rx="3.62" ry="3.62"/><rect class="cls-2" x="98.15" y="569.81" width="63.44" height="8.53" rx="1.62" ry="1.62"/><path class="cls-2" d="M615.13,566a14.92,14.92,0,0,1,6.51,10.12l39-6.29a40.08,40.08,0,0,1-.69-7.44c0-1.23.07-2.44.18-3.65Z" transform="translate(-457.52 -183.34)"/><path class="cls-2" d="M533.41,666.19a14.87,14.87,0,0,1,9.53,3.44l57.54-77.76a15,15,0,0,1-7.57-8.31L531.7,666.3A15,15,0,0,1,533.41,666.19Z" transform="translate(-457.52 -183.34)"/><path class="cls-2" d="M589.52,753.15l-45.42-61.6A14.87,14.87,0,0,1,533.71,696l42.11,57.11Z" transform="translate(-457.52 -183.34)"/><circle class="cls-5" cx="533.41" cy="681.12" r="14.93" transform="translate(-757.59 265.91) rotate(-36.39)"/><circle class="cls-5" cx="149.39" cy="395.09" r="14.93"/><path class="cls-5" d="M739.64,562.34a23.45,23.45,0,0,1-1.13,5.21l-65.91,24s-1.77-1.73-2.59-2.65a39.87,39.87,0,1,1,69.64-26.51Z" transform="translate(-457.52 -183.34)"/><rect class="cls-1" x="348.44" y="586.99" width="305.1" height="10.34"/><path class="cls-5" d="M1193.06,780c0-.47,0-.95,0-1.42a34.15,34.15,0,0,0-68.31,0c0,.48,0,1,0,1.42Z" transform="translate(-457.52 -183.34)"/><rect class="cls-2" x="861.63" y="492.26" width="38.4" height="105.6"/><rect class="cls-2" x="900.03" y="451.46" width="38.4" height="146.4"/><rect class="cls-2" x="939.23" y="464.26" width="19.2" height="133.6"/><rect class="cls-6" x="85.79" y="71.53" width="46.62" height="46.62" rx="23.31" ry="23.31"/><rect class="cls-5" x="1" y="596.5" width="1001.24" height="32.36" rx="5.33" ry="5.33"/><polygon class="cls-5" points="96.65 628.87 129.73 628.87 80.65 853.68 59.85 853.67 96.65 628.87"/><polygon class="cls-5" points="896.77 628.87 863.68 628.87 912.77 853.68 933.57 853.67 896.77 628.87"/><line class="cls-3" x1="421.4" y1="420.87" x2="568.45" y2="420.87"/><rect class="cls-1" x="349.07" y="371.97" width="305.1" height="208.8" rx="10.25" ry="10.25"/><path class="cls-5" d="M806.59,741.4V576.08h305.1V741.4Z" transform="translate(-457.52 -183.34)"/><line class="cls-5" x1="389.49" y1="420.87" x2="536.55" y2="420.87"/><line class="cls-5" x1="389.49" y1="443.85" x2="504.27" y2="443.85"/><line class="cls-5" x1="389.49" y1="432.07" x2="453.6" y2="432.07"/><path class="cls-5" d="M1026.37,933.41l24.2,70.4,9.12,33.2h-22.82s-42.56-126.56-26.32-126.4C1040.33,910.89,1026.37,933.41,1026.37,933.41Z" transform="translate(-457.52 -183.34)"/><path class="cls-5" d="M893.41,933.41l-25.11,70.4-9.46,33.2h23.68s44.16-126.55,27.3-126.39C878.93,910.89,893.41,933.41,893.41,933.41Z" transform="translate(-457.52 -183.34)"/><line class="cls-7" x1="447.19" y1="750.12" x2="569.88" y2="809.1"/><line class="cls-7" x1="557.14" y1="752.33" x2="433.36" y2="809.1"/><line class="cls-7" x1="440.02" y1="762.56" x2="582.36" y2="829.47"/><line class="cls-7" x1="563.54" y1="767.92" x2="420.81" y2="833.68"/><path class="cls-1" d="M854,807.58c-3,14.31-24.3,31.05-20.92,68.18,3.24,35.64,69.52,36.4,131,36.45,94.5.07,113.24-3.33,120.15-33.75,6.75-29.7-12.63-53.63-18.23-68.17-16.87-43.87,2.7-160.11-110.7-160.11C859.39,650.18,864.2,758.5,854,807.58Z" transform="translate(-457.52 -183.34)"/><path class="cls-5" d="M854,807.58c-3,14.31-24.3,31.05-20.92,68.18,3.24,35.64,69.52,36.4,131,36.45,21.1,0,70.24-25.53,64.8-81C1014.64,686.76,987.56,654,987.56,654s-20.06-3.83-32.32-3.83C859.39,650.18,864.2,758.5,854,807.58Z" transform="translate(-457.52 -183.34)"/><path class="cls-5" d="M1283,719.39h-46.42a23.56,23.56,0,0,0-.29,3.5v28.5a23.5,23.5,0,0,0,23.5,23.5h0a23.5,23.5,0,0,0,23.5-23.5v-28.5A23.56,23.56,0,0,0,1283,719.39Z" transform="translate(-457.52 -183.34)"/><rect class="cls-2" x="773.23" y="591.56" width="63" height="5.5" rx="1.83" ry="1.83"/><line class="cls-8" x1="819.42" y1="541.03" x2="819.42" y2="574.03"/><path class="cls-5" d="M1287.25,728.49a6,6,0,0,0-4,1.53v21.38a23.56,23.56,0,0,1-.38,4.1,6.08,6.08,0,0,0,10.47-4.22V734.58A6.09,6.09,0,0,0,1287.25,728.49Z" transform="translate(-457.52 -183.34)"/><path class="cls-9" d="M1216.08,280V518h30.24s5.77-97,2.52-129.08C1237.5,276.8,1216.08,280,1216.08,280Z" transform="translate(-457.52 -183.34)"/><polygon class="cls-10" points="758.42 200.99 795.94 96.55 788.38 96.55 758.56 180.29 758.42 200.99"/><polygon class="cls-10" points="777.18 103.83 781.66 103.83 780.51 118.64 775.43 132.9 777.18 103.83"/><polygon class="cls-10" points="780.26 159.83 781.66 162.35 768.6 172.65 771.71 163.99 780.26 159.83"/><polygon class="cls-10" points="778.3 184.19 781.1 184.19 773.26 218.91 784.74 203.79 793.14 194.27 815.26 152.83 816.94 153.95 799.02 187.55 830.1 157.87 832.06 159.83 793.42 198.75 783.62 210.23 772.42 227.31 758.56 289.42 758.56 259.74 778.3 184.19"/><polygon class="cls-11" points="802.1 165.15 803.78 164.03 806.02 170.19 804.16 173.62 802.1 165.15"/><path class="cls-9" d="M1250.94,303.68c2.15-.29-1.51,6.62-3.08,8.12-1.28,1.23-6.72,2.24-6.72,2.24S1247.41,304.16,1250.94,303.68Z" transform="translate(-457.52 -183.34)"/><path class="cls-9" d="M1253.46,360.8c1.33.09,1,4.83,1.12,6.16a22.1,22.1,0,0,1-.56,4.2s-2.52-1.4-2.52-5.88C1251.5,364.06,1252.24,360.72,1253.46,360.8Z" transform="translate(-457.52 -183.34)"/><path class="cls-9" d="M1287.06,332.52c1.39.08,1.4,2.24,1.4,5s-2.52,5.32-2.52,5.32-1.68-.84-1.68-4.2C1284.26,337.3,1285.68,332.44,1287.06,332.52Z" transform="translate(-457.52 -183.34)"/><path class="cls-12" d="M1229.82,518.18l64.24,0v-5l-26.6,3.92v-2.8l25.2-6.16-1.4-12.32-23.52,7.84-.28-3.08,23-8.12-3.36-17.92-17.36,14-.84-2.52,17.36-15.4-4.2-14-10.08,13.72-1.68-2.8,10.64-14.84s-6.6-21-12.88-21.84c-4.51-.62-13.16,12.6-13.16,12.6l7.84,23.24-2.8,2.8-7-22.68L1245.62,461l10.64,20.72-2,2.52-9.8-19.6-5,12.6L1251.22,498l-1.4,1.68-12-17.36-2.8,12,11.59,19.28-1.79,1.72-10.64-16.8Z" transform="translate(-457.52 -183.34)"/></svg>